<svg xmlns="http://www.w3.org/2000/svg"  viewBox="0 0 48 48" width="48px" height="48px"><path fill="#8a4581" d="M43.24,10.16c-0.11-0.98-0.26-1.99-0.78-2.83c-0.65-1.04-1.81-1.7-3.02-2.02 c-1.2-0.33-2.64-0.18-3.88-0.33c-1.82-0.21-9.81,0.66-11.65,0.69c-6.82,0.1-7.89-1.51-14.65-0.58c-2.34,0.33-3.94,2.97-4.42,5.22 c-0.47,2.26-0.16,4.59-0.06,6.89c0.25,5.79-1.87,12.64-0.91,18.37c0.45,2.63,1.59,5.49,4.12,6.51c1.24,0.51,2.63,0.48,3.97,0.45 c3.99-0.1,8.99-0.2,12.97-0.29c0.94-0.03,1.88-0.05,2.82,0.07c1.23,0.16,2.43,0.57,3.68,0.63c1.12,0.06,2.23-0.15,3.3-0.47 c0.14-0.58,0.02-2.13-0.14-2.71c2.3,1.86,4.3,3.39,6.6,5.25c0.2,0.17,0.41,0.33,0.67,0.4c0.61,0.16,1.24-0.34,1.43-0.93 c0.19-0.59,0.08-1.23-0.03-1.84C41.38,31.82,44.42,21.07,43.24,10.16z"/><path fill="#d6e5e5" d="M37.52,29.28c-0.1,0.98-0.13,2.42-3.87,3.74c-3.74,1.32-4.4,0.44-4.51-0.15 c-0.11-0.58,2.96-1.07,2.82-2.42c-1.49,0.52-3.42,0.37-7.23,0.42c-3.82,0.05-9.07-1.95-9-1.65c0.07,0.31,3.88,2.57,3.48,3.73 c-0.41,1.16-2.56,0.27-3.58-0.35c-1.02-0.62-6.14-2.63-4.69-5.26c0,0,2.45-9.84,4.24-10.34c1.79-0.51,6.63-1.87,9.99-1.9 c3.36-0.03,8.44,0.53,9.98,4.13C36.68,22.83,37.62,28.3,37.52,29.28z"/><path fill="#8a4581" d="M21.218,22.876c-0.567-0.48-1.567-0.29-2.092,0.235s-0.652,1.335-0.592,2.075 c0.054,0.67,0.267,1.372,0.79,1.794c0.595,0.479,1.505,0.467,2.142,0.046c0.637-0.421,0.999-1.192,1.014-1.956 C22.498,24.177,21.898,23.453,21.218,22.876z"/><path fill="#8a4581" d="M28.822,22.613c-0.823-0.284-1.835,0.256-2.083,1.078c-0.061,0.202-0.079,0.413-0.089,0.624 c-0.041,0.946,0.188,2.033,1.027,2.5c0.665,0.37,1.568,0.196,2.102-0.342c0.533-0.538,0.697-1.374,0.486-2.096 S29.542,22.862,28.822,22.613z"/><path fill="#010101" d="M42.102,45.944c-0.122,0-0.246-0.016-0.372-0.049c-0.365-0.098-0.638-0.318-0.857-0.496 c-1.145-0.925-2.213-1.769-3.281-2.612c-0.767-0.605-1.534-1.211-2.329-1.847c0.045,0.619,0.045,1.273-0.042,1.648 c-0.041,0.176-0.173,0.315-0.346,0.365c-1.33,0.39-2.436,0.547-3.47,0.488c-0.758-0.041-1.493-0.199-2.204-0.353 c-0.521-0.112-1.014-0.219-1.517-0.283c-0.896-0.114-1.835-0.093-2.743-0.07c-1.991,0.049-4.236,0.098-6.481,0.146 c-2.245,0.049-4.49,0.098-6.481,0.146c-1.322,0.034-2.821,0.067-4.177-0.483c-2.89-1.173-3.999-4.395-4.42-6.892 c-0.561-3.324-0.104-7.018,0.339-10.59c0.328-2.646,0.667-5.382,0.56-7.846c-0.021-0.481-0.051-0.964-0.081-1.446 c-0.114-1.827-0.232-3.716,0.158-5.561C4.875,7.76,6.609,4.958,9.191,4.6c3.918-0.543,5.932-0.249,8.265,0.093 c1.745,0.256,3.555,0.521,6.445,0.477c0.661-0.01,2.154-0.133,3.884-0.276c3.108-0.257,6.628-0.552,7.837-0.405l0,0 c0.457,0.054,0.941,0.066,1.455,0.079c0.835,0.021,1.699,0.044,2.496,0.257c1.479,0.396,2.654,1.193,3.309,2.247 c0.584,0.939,0.745,2.059,0.851,3.033c0.555,5.094,0.19,10.207-0.16,15.152c-0.403,5.674-0.82,11.541,0.179,17.296 c0.118,0.676,0.242,1.388,0.016,2.081C43.541,45.321,42.874,45.944,42.102,45.944z M34.592,39.261c0.112,0,0.223,0.037,0.314,0.111 c1.153,0.932,2.229,1.781,3.304,2.631c1.071,0.846,2.142,1.691,3.29,2.619c0.161,0.13,0.327,0.265,0.486,0.307 c0.316,0.091,0.713-0.255,0.828-0.606c0.15-0.457,0.058-0.988-0.041-1.551c-1.029-5.924-0.607-11.853-0.2-17.587 c0.349-4.901,0.709-9.969,0.164-14.974c-0.098-0.905-0.232-1.853-0.706-2.613c-0.52-0.836-1.485-1.479-2.717-1.808 c-0.683-0.183-1.486-0.203-2.264-0.224c-0.513-0.013-1.044-0.026-1.547-0.087l0,0c-1.104-0.13-4.727,0.168-7.637,0.41 c-1.748,0.145-3.257,0.269-3.951,0.279c-2.983,0.042-4.904-0.238-6.604-0.487c-2.256-0.329-4.205-0.613-7.983-0.092 C7.318,5.869,5.797,8.23,5.334,10.418c-0.362,1.712-0.249,3.531-0.139,5.291c0.03,0.489,0.061,0.979,0.082,1.466 c0.11,2.547-0.233,5.325-0.566,8.012c-0.434,3.501-0.882,7.12-0.345,10.301c0.31,1.838,1.218,5.079,3.81,6.132 c1.164,0.471,2.552,0.44,3.776,0.409c1.992-0.049,4.238-0.098,6.484-0.146c2.244-0.049,4.489-0.098,6.479-0.146 c0.945-0.022,1.922-0.046,2.894,0.078c0.545,0.07,1.082,0.186,1.601,0.298c0.704,0.151,1.368,0.295,2.046,0.332 c0.845,0.042,1.747-0.069,2.825-0.362c0.042-0.615-0.049-1.735-0.172-2.19c-0.057-0.209,0.028-0.432,0.209-0.55 C34.402,39.288,34.498,39.261,34.592,39.261z"/><path fill="#010101" d="M37.022,23.085l-0.032-0.138c-0.608-2.593-1.551-4.63-2.885-6.228 c-1.465-1.757-3.155-3.399-5.579-3.523c-0.267-0.029-0.511,0.197-0.525,0.474c-0.014,0.275,0.198,0.511,0.474,0.524 c1.228,0.063,2.247,0.593,3.22,1.441c-1.692-0.686-3.406-0.944-4.745-1.018c-2.545-0.14-5.031,0.229-7.782,0.689 c-0.743,0.124-1.472,0.261-2.168,0.447c0.174-0.082,0.336-0.156,0.516-0.242c1.057-0.502,2.149-1.021,3.092-1.344 c0.261-0.089,0.4-0.373,0.311-0.635c-0.09-0.261-0.375-0.401-0.635-0.311c-0.997,0.341-2.166,0.896-3.197,1.386 c-0.422,0.2-0.83,0.394-1.207,0.564c-0.514,0.231-1.008,0.474-1.412,0.873c-0.579,0.573-0.845,1.358-1.059,1.988l-1.818,5.358 c-0.513,1.513-1.044,3.077-1.302,4.706c-0.087,0.545-0.125,1.12,0.176,1.635c0.239,0.407,0.635,0.652,0.923,0.831l3.105,1.932 c0.963,0.6,2.055,1.279,3.328,1.416c0.704,0.073,1.573-0.109,1.895-0.854c0.277-0.641-0.037-1.33-0.471-1.73 c-0.298-0.274-0.638-0.441-0.966-0.603l-0.253-0.128c-0.008-0.004-0.016-0.008-0.024-0.013c4.093,1.444,8.398,1.763,12.136,0.913 c-0.087,0.039-0.176,0.076-0.266,0.112c-0.289,0.114-0.615,0.243-0.881,0.514c-0.369,0.375-0.521,1.037-0.137,1.496 c0.172,0.206,0.399,0.304,0.576,0.366c0.461,0.163,0.924,0.226,1.364,0.226c0.67,0,1.287-0.146,1.759-0.305 c0.239-0.08,0.476-0.15,0.711-0.22c0.658-0.196,1.337-0.398,1.985-0.792l0.372-0.22c0.734-0.431,1.567-0.918,2.024-1.667 C38.47,29.661,37.756,26.212,37.022,23.085z M36.792,30.486c-0.327,0.534-1.044,0.955-1.677,1.325L34.73,32.04 c-0.537,0.326-1.127,0.502-1.751,0.688c-0.246,0.073-0.495,0.147-0.744,0.231c-0.633,0.213-1.577,0.4-2.473,0.083 c-0.098-0.035-0.129-0.05-0.133-0.051c-0.004-0.03,0.02-0.111,0.074-0.167c0.117-0.119,0.321-0.199,0.625-0.32 c1.166-0.467,2.219-1.214,3.047-2.16c0.155-0.177,0.166-0.438,0.025-0.628c-0.142-0.189-0.396-0.254-0.609-0.156 c-4.763,2.179-11.263,1.808-16.964-0.967c-0.202-0.099-0.445-0.05-0.593,0.117c-0.149,0.168-0.168,0.414-0.046,0.603 c0.589,0.915,1.41,1.666,2.375,2.171l0.276,0.139c0.277,0.136,0.539,0.265,0.73,0.44c0.196,0.181,0.297,0.443,0.23,0.599 c-0.095,0.22-0.509,0.293-0.871,0.257c-1.045-0.112-2.033-0.728-2.906-1.271l-3.106-1.932c-0.269-0.167-0.482-0.308-0.587-0.487 c-0.142-0.242-0.108-0.61-0.051-0.973c0.245-1.545,0.762-3.067,1.262-4.541l1.818-5.358c0.018-0.052,0.037-0.106,0.055-0.159 c1.191-1.195,3.005-1.584,4.92-1.904c2.691-0.451,5.118-0.811,7.562-0.678c1.933,0.106,4.697,0.604,6.891,2.372 c0.002,0.001,0.004,0.002,0.006,0.003c0.987,1.38,1.729,3.071,2.224,5.185l0.032,0.138C36.474,25.128,37.471,29.377,36.792,30.486z"/><path fill="#010101" d="M20.405,27.839c-0.508,0-1.007-0.157-1.395-0.47c-0.561-0.452-0.898-1.193-0.975-2.144 c-0.083-1.033,0.178-1.91,0.737-2.469c0.668-0.667,1.969-0.939,2.769-0.263l0,0c0.986,0.835,1.457,1.681,1.438,2.585 c-0.019,0.965-0.494,1.87-1.238,2.363C21.34,27.707,20.869,27.839,20.405,27.839z M20.387,23.099c-0.315,0-0.671,0.13-0.908,0.365 c-0.469,0.47-0.481,1.255-0.446,1.682c0.038,0.467,0.173,1.097,0.605,1.444c0.406,0.328,1.073,0.334,1.552,0.019 c0.474-0.314,0.777-0.908,0.79-1.549c0.012-0.585-0.343-1.174-1.085-1.802l0,0C20.768,23.149,20.585,23.099,20.387,23.099z"/><path fill="#010101" d="M28.462,27.507c-0.361,0-0.717-0.083-1.028-0.257c-0.876-0.486-1.344-1.564-1.283-2.957 c0.01-0.223,0.03-0.484,0.11-0.747c0.16-0.528,0.558-0.988,1.092-1.262c0.525-0.269,1.12-0.321,1.632-0.144 c0.94,0.325,1.525,1.296,1.76,2.096c0.271,0.925,0.031,1.94-0.611,2.588C29.692,27.27,29.07,27.507,28.462,27.507z M28.355,23.037 c-0.18,0-0.369,0.046-0.547,0.138c-0.289,0.147-0.509,0.395-0.59,0.66c-0.047,0.156-0.061,0.333-0.068,0.502 c-0.016,0.368-0.009,1.606,0.77,2.039c0.452,0.253,1.112,0.14,1.504-0.256c0.384-0.387,0.529-1.031,0.361-1.603 c-0.169-0.577-0.583-1.244-1.126-1.432l0,0C28.563,23.053,28.461,23.037,28.355,23.037z"/></svg>