<svg xmlns="http://www.w3.org/2000/svg"  viewBox="0 0 512 512" width="48px" height="48px"><path fill="#D6E5E5" d="M376.2,318.2c-5.4-2.2-4.4-9.3-0.4-11.1c1.2-1.9,2.3-3.8,3.4-5.7c12.1-21.9,19.8-47.6,17.8-72.8c-1.9-24.3-12-46.4-28.5-64.3c-16.5-17.9-37.9-31.7-61.1-39c-23.6-7.5-47.4-7.6-71,0.1c-0.8,0.3-1.6,0.6-2.4,0.8l0,0c-2.1,1.1-4.6,0.9-6.5-1.5c-7.6-9.8-17.8-19.2-30.7-20.5c-12.4-1.2-24.5,3.7-34.5,10.7c-12.7,8.9-25.2,21.2-29.3,36.6c-2,7.4-3.4,17.8-0.4,25c2.8,6.9,7.7,12.3,12.2,18.2c3.1,4,0.1,9-3.6,9.8c-4.2,7.6-7.7,15.5-10.3,23.6c-8.2,24.8-8.6,51.7,0.5,76.4c9,24.2,24.4,45,42.7,63c0.8,0.7,1.2,1.5,1.5,2.3C204,392.1,241.6,392,275.4,381c1.4-3.7,6.5-6,9.8-2.1c7.4,8.7,17.1,17.9,29.2,18.7c11.4,0.7,22.3-4.9,31.3-11.4c14.5-10.4,29.2-20.5,35.5-37.8c1.8-5,1.8-11.1,1.1-16.4C381.6,328,380.7,320,376.2,318.2z M332.2,302.3c0.2,7.1-1.4,14.2-5.3,20.1c-1.9,2.8-4.3,5.1-7,6.9c-3.6,5.5-9,9.4-15.1,12.1c-3.6,2.5-7.5,4.5-11.5,5.5c-11.3,2.6-23.2,2.3-34.6,0.9c-9.5-1.2-21.5-3.7-31.5-8.7c-6.2-1.9-12-4.8-16.7-9c-10.1-9.3-14.2-27.9-5.9-39.7c3.7-5.3,10.7-10.3,17.4-8.5c5.5,1.5,8.9,7.1,10.2,12.4c0.8,3,0.9,6.7,1.1,10.4c2.8,2.9,5.7,5.7,8.9,8.1c8.2,6.3,17.4,8.5,27.3,10.3c0.3,0,0.5,0.1,0.8,0.2c4.1-0.1,8.1-0.4,12.2-1c12.1-1.9,21.6-15.3,21.2-27.5c-0.8-0.6-1.4-1.5-1.7-2.7c-1.8-6.7-8.5-9.8-14.5-12c-5.5-2-11.2-3.8-17-4.9c-13.3-2.5-26.6-4.8-39.5-9.2c-12.2-4.2-25.1-10.8-30.9-23.1c-2.1-4.4-3-9.1-3.1-13.9c-1.3-2.8-2.1-5.9-1.9-9.1c0.1-1.3,0.2-2.6,0.4-3.8c-0.2-0.5-0.4-1.1-0.4-1.8c0-0.7,0-1.4,0-2.1c1.1-30,39.6-42.1,64-44.9c16.2-1.8,46.2-0.9,57,14.5c2.6,2.2,4.8,4.8,6.2,8.3c2.4,6.1,3,14-0.8,19.7c-4.2,6.4-11.7,7-17.9,2.8c-4.7-3.1-7.2-7.3-9.5-11.7c-3.3-2.4-6.4-5.2-9.5-7.8c-0.3-0.1-0.7-0.3-1.1-0.4c-12.2,0.4-24.4,1.8-35.6,6.3c-6.8,2.7-13.7,6.5-18.5,12c-2.2,2.5-4.5,5.5-5.1,8.9c-0.2,1.3-0.4,2.6-0.3,3.9c0.1,1.3,0.9,3.1-0.2,2.1c1.9,1.6,2.3,3.6,1.7,5.4c0.6,1.4,1.4,2.8,2.3,4.1c4.6,3.4,10.2,5.9,14.8,7.7c14.2,5.4,29.5,6.6,44,11.1c14.5,4.5,29,11.6,37.7,24.6C328.4,285.2,333.1,294.3,332.2,302.3z"/><path fill="#4B7BB2" d="M478.9,160c-16.1-46.6-46.7-87.1-91.3-109.6c-50.9-25.7-111-28.1-166.4-19.3C171.4,39,118.9,57,81.6,92.2C62.1,110.7,46.9,133.1,39,159c-8,26-10.4,53.1-12.1,80.1c-0.1,1.1-0.4,2-1,2.7c0,0.2,0.1,0.5,0.1,0.8c0,52.9-1.1,108.3,30.1,153.9c25.3,37.1,64.5,61.5,107.2,73.7c88,25.2,194.2,9.6,264.9-50.8C502.3,356.1,509.1,247.1,478.9,160z M398.3,288.3c-3.3,8.1-7.2,15.9-11.7,23.4c8.4,9,9,26.1,6.6,37c-4.4,20.4-21.6,32.9-37.4,44.5c-12,8.9-26.7,17.5-42.3,16c-13.2-1.2-23.9-8.6-32.8-17.8c-18.2,6.1-37.4,9.9-56.6,8.5c-23.5-1.6-44.8-10.7-62.3-26.5c-1.2-1.1-1.7-2.3-1.8-3.5c-5.6-5.8-10.9-11.9-15.8-18.3c-15.1-20-26.9-43.2-30.4-68.2c-3.6-25.8,1-51.7,12.1-75.2c1.8-3.8,3.7-7.4,5.8-11.1c-4.5-5.7-8.8-11.5-10.9-18.4c-2.8-9.2-2.1-20.5,0.4-29.7c4.9-18.4,18.7-33.4,34.1-43.9c12.4-8.4,27.8-15.1,43.1-12.8c14.4,2.2,26,10.5,35.2,21.4c2-0.6,4.1-1.2,6.2-1.8c23.7-6.4,47.9-5.6,71.2,2.1c23.2,7.6,44.9,20.7,62.1,38.1c16.8,17,29.9,38.6,33.9,62.4C411.2,239.4,407.8,265.2,398.3,288.3z"/><path fill="#4B7BB2" d="M320.7,297.3c0.1,1.2,0.3,2.5,0.4,3.7c0-0.1,0.1-0.2,0.1-0.3C321.1,299.5,321,298.4,320.7,297.3z"/><path d="M492.6,166.9c-14.2-46.9-40.9-88.3-82-115.7c-46.4-31-105.3-38.4-159.8-34.4c-51.7,3.8-104.6,17.9-148.6,46c-21.6,13.8-40.9,31.9-55,53.4c-14.9,22.7-22.5,48.8-26.6,75.4c-2.3,15.1-3.4,30.3-4.4,45.6c-0.1,0.9,0.1,1.8,0.4,2.6c-0.9,0.9-1.5,2.2-1.5,3.8c0,30.1-0.6,60.4,4.6,90.2c4.8,27.1,15.2,52.9,31.6,75.1c29.2,39.5,73.5,63.3,120.4,75c88.9,22.2,194.2,3.7,264.5-57.1C510.3,362.7,519.5,255.8,492.6,166.9z M428.2,419.4c-70.8,60.4-176.9,76-264.9,50.8c-42.7-12.2-81.9-36.6-107.2-73.7C24.9,350.9,26,295.5,26,242.6c0-0.3,0-0.5-0.1-0.8c0.5-0.7,0.9-1.6,1-2.7c1.7-27,4.1-54.1,12.1-80.1c7.9-25.9,23.1-48.3,42.7-66.8C118.9,57,171.4,39,221.2,31.1c55.5-8.8,115.5-6.4,166.4,19.3c44.6,22.5,75.1,63.1,91.3,109.6C509.1,247.1,502.3,356.1,428.2,419.4z"/><path d="M407.1,214.6c-4-23.8-17.2-45.4-33.9-62.4c-17.2-17.5-38.9-30.5-62.1-38.1c-23.3-7.7-47.5-8.4-71.2-2.1c-2.1,0.6-4.1,1.2-6.2,1.8c-9.2-10.9-20.8-19.1-35.2-21.4c-15.3-2.4-30.7,4.3-43.1,12.8c-15.4,10.5-29.2,25.5-34.1,43.9c-2.5,9.3-3.2,20.5-0.4,29.7c2.1,6.9,6.5,12.8,10.9,18.4c-2.1,3.6-4,7.3-5.8,11.1c-11.2,23.5-15.7,49.4-12.1,75.2c3.5,25.1,15.3,48.2,30.4,68.2c4.9,6.4,10.2,12.5,15.8,18.3c0.1,1.2,0.6,2.4,1.8,3.5c17.5,15.8,38.7,24.9,62.3,26.5c19.2,1.3,38.4-2.5,56.6-8.5c8.9,9.2,19.6,16.6,32.8,17.8c15.6,1.5,30.2-7.2,42.3-16c15.8-11.6,33-24.2,37.4-44.5c2.4-10.9,1.8-28-6.6-37c4.5-7.5,8.4-15.3,11.7-23.4C407.8,265.2,411.2,239.4,407.1,214.6z M379.2,301.3c-1.1,2-2.2,3.9-3.4,5.7c-4,1.8-5,9,0.4,11.1c4.5,1.8,5.4,9.8,6,13.9c0.7,5.3,0.8,11.3-1.1,16.4c-6.3,17.4-21,27.4-35.5,37.8c-9,6.5-19.9,12.1-31.3,11.4c-12.1-0.8-21.7-10-29.2-18.7c-3.3-3.9-8.4-1.6-9.8,2.1c-33.7,11-71.4,11.1-100.1-11.3c-0.2-0.8-0.7-1.6-1.5-2.3c-18.3-18-33.7-38.7-42.7-63c-9.1-24.7-8.6-51.6-0.5-76.4c2.7-8.1,6.2-16,10.3-23.6c3.7-0.9,6.7-5.8,3.6-9.8c-4.5-5.8-9.4-11.3-12.2-18.2c-3-7.3-1.6-17.7,0.4-25c4.1-15.4,16.6-27.7,29.3-36.6c10-7,22.1-12,34.5-10.7c12.9,1.3,23.1,10.7,30.7,20.5c1.9,2.4,4.4,2.6,6.5,1.5l0,0c0.8-0.3,1.6-0.6,2.4-0.8c23.6-7.7,47.4-7.6,71-0.1c23.3,7.4,44.6,21.1,61.1,39c16.5,17.9,26.7,40,28.5,64.3C398.9,253.7,391.3,279.4,379.2,301.3z"/><path fill="#4B7BB2" d="M324.2,279c-8.7-13-23.2-20-37.7-24.6c-14.5-4.5-29.8-5.7-44-11.1c-4.5-1.7-10.1-4.2-14.8-7.7c-0.9-1.3-1.6-2.7-2.3-4.1c0.6-1.8,0.2-3.8-1.7-5.4c1.1,0.9,0.3-0.9,0.2-2.1c-0.1-1.3,0.1-2.6,0.3-3.9c0.6-3.4,2.9-6.3,5.1-8.9c4.9-5.6,11.8-9.3,18.5-12c11.2-4.5,23.4-5.9,35.6-6.3c0.4,0.1,0.7,0.3,1.1,0.4c3.1,2.6,6.2,5.4,9.5,7.8c2.3,4.4,4.9,8.6,9.5,11.7c6.2,4.1,13.7,3.6,17.9-2.8c3.8-5.7,3.2-13.6,0.8-19.7c-1.4-3.5-3.6-6.1-6.2-8.3c-10.8-15.4-40.8-16.3-57-14.5c-24.3,2.8-62.9,14.9-64,44.9c0,0.7,0,1.4,0,2.1c0,0.7,0.2,1.3,0.4,1.8c-0.2,1.2-0.4,2.5-0.4,3.8c-0.2,3.2,0.6,6.2,1.9,9.1c0.1,4.8,1,9.5,3.1,13.9c5.8,12.2,18.7,18.8,30.9,23.1c12.8,4.5,26.2,6.7,39.5,9.2c5.7,1.1,11.5,2.8,17,4.9c6,2.2,12.7,5.4,14.5,12c0.3,1.2,1,2.1,1.7,2.7c0.4,12.2-9.1,25.6-21.2,27.5c-4,0.6-8.1,1-12.2,1c-0.3-0.1-0.5-0.1-0.8-0.2c-9.9-1.8-19.2-4-27.3-10.3c-3.2-2.5-6.1-5.2-8.9-8.1c-0.2-3.8-0.3-7.4-1.1-10.4c-1.3-5.3-4.7-10.9-10.2-12.4c-6.8-1.8-13.7,3.2-17.4,8.5c-8.3,11.8-4.2,30.4,5.9,39.7c4.6,4.3,10.4,7.2,16.7,9c10,5,22,7.5,31.5,8.7c11.4,1.4,23.3,1.6,34.6-0.9c4-0.9,7.9-3,11.5-5.5c6.2-2.7,11.5-6.7,15.1-12.1c2.7-1.8,5.1-4.1,7-6.9c3.9-5.8,5.5-13,5.3-20.1C333.1,294.3,328.4,285.2,324.2,279z M321.2,300.9c-0.1-1.2-0.3-2.4-0.4-3.7c0.2,1.1,0.4,2.2,0.5,3.3C321.2,300.7,321.2,300.8,321.2,300.9z"/><path d="M320.2,265.3c-13.9-10.9-32-17.4-49.1-21.4c-7.8-1.8-15.7-3.3-23.1-6.7c-7.2-3.3-10.6-8.3-12.8-15.1c0-0.2,0-0.4,0-0.6c-0.1-8.7,14.5-13.5,20.8-16.6c5.1-2.5,10.9-4.8,16.6-4.4c6.3,0.4,11,4.2,15.7,8.2c7.5,6.4,16.2,13.9,26.5,14.4c11.5,0.5,19.5-11.1,19.6-21.7c0.5-27.1-32.7-41.1-55.1-42.9c-13.8-1.1-27.5,1.3-40.6,5.4c-11.6,3.6-24,8.3-33.1,16.6c-15,13.7-17.8,34.9-10.6,53.3c8.5,21.8,31.1,39.2,53.9,43.5c11.4,2.1,23.6,0.3,34.5,5.3c6.3,2.9,13.8,11.7,12.3,18.8c-0.9,4.3-7.2,7.1-11.8,8.5c-6.8,2.1-14.4,2.3-21.4,1.5c-6-0.7-12.6-2.2-17.1-6.4c-6.8-6.2-10.8-14.9-17.9-21c-7.3-6.2-17.6-7.6-25.3-1.3c-7.1,5.8-8.1,15.6-6.8,24.1c1.3,8.2,4.5,16.9,9.8,23.4c8.2,9.9,20.6,14.6,32.7,17.6c25.7,6.4,55.6,8.6,77.8-8.2c11.4-8.6,20.2-21.4,22.3-35.7C340.3,288.3,332.3,274.7,320.2,265.3z M326.8,304.3c-1.8,10.1-8.5,19.1-16.2,25.5c-10.2,8.5-22.5,11.6-35.6,11.9c-14,0.3-29-2.4-42.3-6.6c-10.1-3.2-18.8-9.2-23.1-19c-2.7-6.1-6.1-16.8-1.9-23c5.8-8.6,14.8,0.8,18.9,5.9c5.2,6.5,9.4,13.7,16.7,18.1c6.1,3.7,13.8,5.1,20.8,5.6c13.5,1,32.1-1,40.2-13.6c3.8-6,3.2-13.3,0.2-19.5c-5.1-10.5-13.8-17-24.9-19.9c-11.9-3.1-24.5-1.1-36.2-5.1c-11.6-4-22.9-12.3-30.5-21.9c-11.7-14.8-15.3-36.4-2.2-51.5c7.9-9.1,20.8-13.2,31.9-16.8c13.3-4.3,27.5-6.3,41.4-4.3c12.7,1.9,26.6,7.6,34.7,18c3.4,4.4,5.7,9.8,4.8,15.4c-0.9,5.2-4.6,9.4-9.9,8.4c-7.8-1.5-14.7-8.9-20.5-13.9c-8.1-7-18.4-9.9-28.8-7.6c-8.9,2-17.7,6.6-25.5,11.2c-6.4,3.7-11.9,9-13.6,16.1c-0.9,1.2-1.4,2.9-0.9,4.8c1.4,5.7,3.1,11.4,7.2,15.9c4.1,4.5,9,7.6,14.6,9.9c10.9,4.6,22.9,5.8,34.1,9.5C300.5,264.4,331.7,277.3,326.8,304.3z"/></svg>