<svg xmlns="http://www.w3.org/2000/svg"  viewBox="0 0 48 48" width="48px" height="48px"><path fill="#74cccf" d="M22.5,3.5C18,4,16.525,4.799,13,7c-2.649,1.654-4.43,3.726-5.687,6.586S5.113,19.437,4.5,22.5	c-0.5,2.5,0,6,1,8c1.74,3.481,2.509,5.01,5,8c0.582,0.698,2.225,1.561,2.961,2.094c0.941,0.681,1.918,1.601,3.039,1.906	C21.235,43.786,25,44,30,43c4.811-0.962,8.552-3.936,10.942-8.221c0.885-1.586,1.48-3.318,1.968-5.068	c0.629-2.256,1.09-4.587,0.987-6.927c-0.14-3.173-1.67-8.619-3.397-11.284C36.55,5.404,29.752,3.929,22.5,3.5z"/><path fill="#bcbcbc" d="M23.171,30.204l-3.426,3.374c0,0-0.149,0.115-0.348,0.12c-0.069,0.002-0.143-0.009-0.219-0.043	l0.964-5.965L23.171,30.204z"/><path fill="#010101" d="M24.173,44.128c-2.508,0-4.975-0.377-7.804-1.146c-0.965-0.262-1.782-0.895-2.572-1.506	c-0.212-0.164-0.422-0.326-0.629-0.477c-0.229-0.166-0.549-0.364-0.896-0.58c-0.802-0.499-1.71-1.064-2.156-1.6	c-2.538-3.047-3.329-4.629-5.063-8.097c-1.084-2.169-1.542-5.824-1.043-8.322c0.619-3.095,1.577-6.128,2.845-9.017	c1.297-2.95,3.166-5.114,5.88-6.809c3.456-2.158,5.044-3.054,9.709-3.573l0.042-0.004l0.042,0.002	c6.715,0.397,14.151,1.685,18.391,8.227c1.822,2.812,3.339,8.409,3.477,11.534c0.118,2.693-0.517,5.333-1.005,7.083	c-0.605,2.171-1.226,3.768-2.013,5.178c-2.553,4.574-6.453,7.503-11.281,8.468C27.983,43.913,26.066,44.128,24.173,44.128z M22.513,4.001c-4.368,0.489-5.793,1.265-9.249,3.423C10.694,9.029,9,10.992,7.771,13.787c-1.24,2.823-2.175,5.787-2.78,8.811	c-0.462,2.309-0.042,5.681,0.957,7.678c1.698,3.396,2.473,4.946,4.937,7.903c0.343,0.412,1.215,0.955,1.916,1.391	c0.37,0.23,0.71,0.442,0.955,0.619c0.216,0.156,0.434,0.325,0.655,0.496c0.712,0.552,1.449,1.122,2.222,1.332	c4.8,1.303,8.521,1.441,13.271,0.492c4.531-0.906,8.198-3.664,10.604-7.974c0.746-1.339,1.339-2.868,1.923-4.96	c0.757-2.714,1.056-4.802,0.968-6.77c-0.132-2.997-1.578-8.353-3.316-11.034C36.093,5.617,28.967,4.387,22.513,4.001z"/><path fill="#bcbcbc" d="M20.145,27.597c-0.249,1.15-0.1,2.122-0.431,3.251c-0.215,0.733-0.503,2.437-1.095,2.919	c-1.393-2.156-1.758-5.241-2.709-7.449l12.488-7.993l1.013,0.024l-0.284,1.074L20.145,27.597z"/><path fill="#d6e5e5" d="M20.678,28.105c1.058,1.366,1.839,2.075,3.183,3.161c1.363,1.102,2.786,2.022,4.292,2.919	c0.164,0.098,0.831,0.406,1.004,0.488c0.427,0.202,0.722-0.214,0.797-0.414c0.592-1.579,0.724-2.167,1.093-3.386	c0.681-2.256,1.005-4.059,1.453-6.372c0.579-2.986,1.204-6.498,1.387-9.535c0.021-0.35-0.014-0.79-0.339-0.921	c-0.141-0.057-0.892-0.023-1.042,0.001c-3.353,0.555-5.975,1.721-9.166,2.893c-0.795,0.292-1.591,0.584-2.386,0.876	c-2.897,1.063-4.01,1.808-6.906,2.871c-0.699,0.257-2.301,1.067-3.179,1.46c-0.68,0.304-0.843,0.363-0.485,1.017	c0.215,0.392,1.505,1.33,1.895,1.548c0.897,0.502,1.54,0.795,2.518,1.109c0.372,0.119,0.487,0.193,0.878,0.185	c0.487-0.01,1.108-0.512,1.532-0.753c2.535-1.442,3.637-2.407,6.041-3.835c1.618-0.961,3.41-2.378,5.151-3.09	c0.336-0.137,0.779-0.252,1.013,0.024c0.264,0.31-0.006,0.776-0.284,1.074c-0.893,0.958-2.535,2.681-3.561,3.496	c-2.025,1.61-3.887,2.914-5.324,4.503C20.108,27.573,20.554,27.945,20.678,28.105z"/><path fill="#010101" d="M29.382,35.228c-0.146,0-0.295-0.034-0.438-0.103l-0.129-0.061c-0.273-0.129-0.774-0.365-0.917-0.45	c-1.22-0.727-2.816-1.721-4.351-2.96c-1.389-1.122-2.189-1.856-3.264-3.243l0,0c-0.022-0.029-0.06-0.066-0.101-0.108	c-0.235-0.245-0.725-0.756-0.31-1.215c1.142-1.263,2.551-2.354,4.042-3.51c0.437-0.338,0.885-0.686,1.342-1.049	c0.996-0.791,2.624-2.498,3.506-3.445c0.175-0.188,0.249-0.355,0.257-0.421c-0.023,0.015-0.15,0.012-0.431,0.126	c-1.109,0.454-2.265,1.221-3.381,1.963c-0.583,0.387-1.154,0.767-1.705,1.094c-1.093,0.649-1.926,1.209-2.732,1.751	c-0.95,0.639-1.932,1.3-3.318,2.088c-0.097,0.055-0.205,0.125-0.319,0.199c-0.44,0.285-0.94,0.607-1.448,0.619	c-0.415-0.002-0.608-0.062-0.863-0.149l-0.18-0.061c-0.963-0.309-1.646-0.608-2.609-1.148c-0.324-0.181-1.781-1.182-2.089-1.744	c-0.161-0.295-0.323-0.638-0.206-0.988c0.124-0.367,0.446-0.511,0.892-0.711c0.354-0.158,0.774-0.359,1.21-0.567	c0.773-0.369,1.572-0.75,2.035-0.92c1.431-0.525,2.441-0.981,3.419-1.422c0.994-0.448,2.021-0.912,3.487-1.449l2.387-0.876	c0.61-0.224,1.199-0.448,1.776-0.667c2.428-0.922,4.721-1.792,7.479-2.249c0.01-0.001,0.979-0.105,1.312,0.028	c0.328,0.132,0.707,0.485,0.65,1.416c-0.185,3.073-0.809,6.577-1.395,9.599l-0.114,0.59c-0.388,2.01-0.723,3.746-1.352,5.831	L31.3,31.779c-0.232,0.796-0.417,1.425-0.878,2.655c-0.092,0.244-0.324,0.578-0.679,0.722	C29.625,35.203,29.504,35.228,29.382,35.228z M20.827,27.529c0.029,0.031,0.057,0.06,0.077,0.081	c0.07,0.073,0.131,0.139,0.169,0.188l0,0c1.02,1.316,1.75,1.986,3.103,3.079c1.485,1.199,3.042,2.168,4.234,2.878	c0.129,0.076,0.583,0.288,0.83,0.404l0.133,0.062c0.029-0.005,0.095-0.086,0.114-0.139c0.447-1.194,0.627-1.808,0.854-2.583	l0.229-0.771c0.614-2.035,0.929-3.666,1.326-5.731l0.114-0.592c0.58-2.99,1.197-6.454,1.379-9.469	c0.021-0.344-0.047-0.441-0.047-0.442c-0.057,0.007-0.621,0.025-0.754,0.045c-2.66,0.44-4.907,1.294-7.287,2.198	c-0.581,0.22-1.174,0.445-1.787,0.67l-2.387,0.876c-1.432,0.525-2.443,0.981-3.42,1.422c-0.994,0.448-2.021,0.911-3.486,1.449	c-0.419,0.154-1.231,0.542-1.948,0.884c-0.444,0.212-0.872,0.417-1.2,0.563c-0.127,0.057-0.25,0.112-0.335,0.155	c0.019,0.04,0.045,0.094,0.084,0.166c0.147,0.253,1.275,1.113,1.7,1.352c0.91,0.509,1.522,0.779,2.427,1.068l0.199,0.067	c0.217,0.074,0.292,0.095,0.517,0.095c0.224-0.005,0.647-0.278,0.926-0.459c0.132-0.085,0.256-0.165,0.368-0.229	c1.354-0.77,2.277-1.391,3.254-2.049c0.817-0.55,1.662-1.118,2.779-1.782c0.537-0.319,1.094-0.689,1.662-1.066	c1.157-0.77,2.354-1.565,3.556-2.057c0.883-0.362,1.349-0.112,1.584,0.162c0.389,0.458,0.273,1.125-0.299,1.74	c-1.101,1.182-2.622,2.757-3.615,3.547c-0.46,0.366-0.912,0.715-1.352,1.057C23.165,25.424,21.874,26.424,20.827,27.529z"/><path fill="#010101" d="M18.62,34.268c-0.026,0-0.052-0.002-0.078-0.006c-0.14-0.022-0.265-0.104-0.342-0.223	c-0.887-1.373-1.364-3.059-1.824-4.688c-0.29-1.027-0.564-1.998-0.924-2.834c-0.109-0.254,0.007-0.548,0.261-0.657	c0.251-0.11,0.547,0.008,0.657,0.261c0.387,0.897,0.669,1.898,0.969,2.958c0.363,1.283,0.735,2.603,1.305,3.725	c0.185-0.468,0.337-1.089,0.435-1.49c0.057-0.233,0.108-0.442,0.156-0.605c0.166-0.566,0.201-1.099,0.237-1.663	c0.032-0.49,0.065-0.997,0.185-1.553c0.059-0.27,0.327-0.439,0.595-0.383c0.27,0.058,0.441,0.324,0.383,0.594	c-0.104,0.483-0.134,0.932-0.165,1.407c-0.039,0.593-0.079,1.207-0.275,1.879c-0.044,0.151-0.092,0.346-0.145,0.562	c-0.284,1.159-0.563,2.156-1.114,2.604C18.846,34.229,18.734,34.268,18.62,34.268z"/><path fill="#010101" d="M18.757,34.248c-0.145,0-0.289-0.062-0.388-0.184c-0.175-0.214-0.143-0.529,0.071-0.703	c0.134-0.109,0.256-0.217,0.376-0.321c0.301-0.264,0.611-0.536,1.025-0.774c0.132-0.075,0.378-0.236,0.805-0.577	c0.118-0.094,0.404-0.398,0.626-0.651c0.221-0.251,0.373-0.411,0.525-0.571c0.146-0.153,0.291-0.306,0.502-0.546	c0.183-0.207,0.499-0.228,0.706-0.045c0.208,0.182,0.228,0.498,0.045,0.705c-0.222,0.253-0.375,0.414-0.528,0.575	c-0.145,0.151-0.29,0.304-0.499,0.542c-0.119,0.135-0.523,0.589-0.754,0.772c-0.382,0.306-0.696,0.529-0.931,0.663	c-0.327,0.188-0.576,0.407-0.865,0.659c-0.127,0.112-0.259,0.227-0.401,0.343C18.98,34.211,18.868,34.248,18.757,34.248z"/></svg>