<svg xmlns="http://www.w3.org/2000/svg"  viewBox="0 0 48 48" width="48px" height="48px"><path fill="#4b7bb2" d="M5.611,33.694c-3.612-6.917-2.396-17.552,2.782-23.397c3.288-3.711,8.647-6.177,13.587-6.689 S32.1,4.51,35.867,7.737c1.026,0.879,1.94,1.878,2.829,2.894c0.901,1.03,1.78,2.084,2.534,3.225 c2.472,3.741,3.504,8.403,2.84,12.834c-0.664,4.431-3.017,8.589-6.477,11.446c-1.054,0.87-2.2,1.62-3.344,2.368 c-1.109,0.725-2.224,1.454-3.435,1.994c-1.526,0.68-3.172,1.047-4.818,1.341c-2.621,0.468-5.396,0.749-7.888-0.187 c-1.072-0.402-2.057-1.019-3.146-1.373c-2.822-0.919-6.086,0.228-9.052,0.106c-0.231-0.009-0.473-0.029-0.67-0.15 c-0.301-0.185-0.424-0.561-0.458-0.912c-0.15-1.557,1.173-3.146,1.433-4.688C6.386,35.625,6.085,34.602,5.611,33.694z"/><path fill="#010101" d="M42.618,15.234c-1.148-2.212-2.789-4.139-4.47-5.963c-1.554-1.687-3.308-3.142-5.361-4.183 C24.922,1.099,14.574,3.139,8.489,9.458c-2.692,2.795-4.294,6.526-5.006,10.305c-0.726,3.847-0.621,7.948,0.635,11.677 c0.29,0.861,0.646,1.699,1.062,2.507c0.619,1.229,0.73,2.391,0.219,3.673c-0.411,1.029-1.006,2.016-1.11,3.142 c-0.084,0.907,0.211,1.891,1.208,2.082c1.101,0.21,2.352-0.01,3.452-0.136c1.235-0.141,2.473-0.313,3.719-0.285 c1.308,0.029,2.45,0.396,3.622,0.957c1.061,0.509,2.111,0.977,3.277,1.19c1.171,0.214,2.366,0.243,3.551,0.155 c2.481-0.185,5.097-0.635,7.411-1.567c2.291-0.922,4.444-2.425,6.42-3.89c3.553-2.633,6.165-6.4,7.253-10.702 C45.328,24.115,44.731,19.303,42.618,15.234z M43.728,25.229c-0.281,4.212-2.153,8.274-5.104,11.282 c-1.617,1.648-3.573,2.899-5.511,4.134c-1.041,0.664-2.113,1.285-3.275,1.712c-1.142,0.419-2.332,0.693-3.526,0.918 c-2.289,0.432-4.719,0.773-7.017,0.218c-1.131-0.273-2.127-0.827-3.182-1.294c-0.97-0.429-1.957-0.691-3.018-0.758 c-2.301-0.146-4.567,0.481-6.865,0.453c-0.223-0.003-0.592,0.04-0.772-0.118c-0.199-0.176-0.194-0.59-0.184-0.826 c0.023-0.562,0.245-1.118,0.463-1.629c0.393-0.922,0.888-1.824,1-2.835c0.119-1.069-0.218-2.099-0.694-3.044 c-1.683-3.265-2.2-7.042-1.947-10.677c0.257-3.687,1.342-7.408,3.407-10.496c2.229-3.333,5.763-5.663,9.498-6.997 c3.969-1.418,8.263-1.695,12.326-0.49c2.02,0.599,3.945,1.55,5.613,2.842c1.846,1.43,3.43,3.279,4.865,5.111 C42.585,16.282,44.029,20.718,43.728,25.229z"/><path fill="#d6e5e5" d="M10.573,17.825c-0.389,3.057,0.724,5.303,2.227,7.629c2.308,3.573,5.389,7.05,9.532,7.94 c1.17,0.251,2.714,0.072,3.089-1.071c0.231-0.703-0.108-1.452-0.206-2.186c-0.098-0.734,0.293-1.695,1.027-1.632 c0.384,0.033,0.678,0.344,0.933,0.634c0.848,0.965,1.697,1.93,2.545,2.895c0.658,0.748,1.832,1.504,2.729,1.38 c0.644-0.089,1.801-0.244,2.429-0.412c0.171-0.046,0.351-0.102,0.471-0.233c0.162-0.177,0.174-0.442,0.159-0.682 c-0.055-0.836-0.353-1.655-0.847-2.329c-0.891-1.217-2.414-2.004-2.863-3.447c-0.477-1.53,0.461-3.123,1.464-4.37 s2.176-2.54,2.259-4.142c0.016-0.316-0.047-0.691-0.328-0.833c-0.145-0.074-0.316-0.066-0.479-0.054 c-1.572,0.114-3.127,0.457-4.602,1.014c-0.289,0.109-0.586,0.234-0.787,0.47c-0.264,0.309-0.31,0.742-0.365,1.146 c-0.29,2.124-1.354,4.245-3.365,4.957c-0.097-1.69-0.064-3.257,0.1-4.942c0.053-0.546,0.09-1.18-0.308-1.556 c-0.299-0.282-0.745-0.318-1.155-0.334c-1.513-0.058-3.028-0.048-4.54,0.03c-0.464,0.024-1.059,0.176-1.098,0.641 c-0.022,0.268,0.168,0.499,0.329,0.714c1.195,1.593,1.228,3.75,1.212,5.746c-0.004,0.484-0.15,1.127-0.631,1.143 c-0.3,0.01-0.531-0.254-0.708-0.498c-1.213-1.669-2.187-3.513-2.883-5.459c-0.224-0.626-0.429-1.181-0.868-1.678 C14.02,17.15,11.48,17.663,10.573,17.825z"/><path fill="#010101" d="M35.856,31.13c-0.308-1.18-1.054-2.064-1.923-2.879c-0.901-0.845-1.886-1.718-1.746-3.075 c0.281-2.741,3.381-4.207,3.787-6.946c0.076-0.512,0.096-1.131-0.304-1.527c-0.475-0.47-1.27-0.273-1.851-0.2 c-0.789,0.099-1.571,0.249-2.34,0.457c-0.702,0.19-1.501,0.385-2.125,0.769c-0.552,0.34-0.758,0.894-0.852,1.506 c-0.1,0.652-0.22,1.291-0.448,1.914c-0.381,1.038-1.036,1.987-1.975,2.559c-0.038-1.225-0.028-2.449,0.074-3.672 c0.089-1.069,0.204-2.388-1.083-2.762c-0.566-0.164-1.212-0.123-1.793-0.135c-0.797-0.016-1.594-0.012-2.39,0.01 c-0.837,0.023-2.416-0.128-2.747,0.925c-0.172,0.547,0.181,0.969,0.467,1.391c0.383,0.566,0.627,1.192,0.781,1.856 c0.142,0.61,0.2,1.235,0.228,1.86c0.027,0.614,0.117,1.337-0.011,1.942c-0.103,0.485-0.293,0.176-0.508-0.111 c-0.176-0.236-0.337-0.484-0.498-0.731c-0.402-0.618-0.773-1.256-1.111-1.911c-0.614-1.192-0.949-2.518-1.582-3.69 c-1.098-2.031-3.541-1.683-5.465-1.337c-0.262,0.047-0.362,0.24-0.354,0.442c-0.003,0.015-0.011,0.025-0.013,0.041 c-0.304,2.618,0.518,4.99,1.868,7.202c1.306,2.142,2.842,4.217,4.728,5.886c1.71,1.514,3.938,2.897,6.273,3.069 c0.918,0.068,1.979-0.127,2.598-0.866c0.337-0.403,0.476-0.915,0.457-1.436c-0.024-0.67-0.392-1.352-0.276-2.021 c0.034-0.194,0.124-0.518,0.32-0.606c0.326-0.147,0.584,0.226,0.781,0.441c0.542,0.592,1.061,1.206,1.591,1.809 c0.881,1.002,1.734,2.083,3.061,2.498c0.96,0.3,2.148-0.021,3.106-0.217c0.472-0.096,0.973-0.203,1.249-0.635 C36.155,32.439,35.998,31.676,35.856,31.13z M34.745,32.521c-0.377,0.191-0.977,0.2-1.387,0.263 c-0.503,0.077-1.03,0.214-1.532,0.077c-1.246-0.34-2.058-1.528-2.866-2.446c-0.477-0.542-0.944-1.095-1.432-1.628 c-0.344-0.376-0.747-0.756-1.287-0.781c-0.896-0.041-1.422,0.815-1.519,1.608c-0.12,0.983,0.839,2.479-0.262,3.12 c-0.869,0.505-2.032,0.215-2.919-0.067c-1.073-0.341-2.074-0.878-2.992-1.526c-2.131-1.504-3.798-3.611-5.213-5.776 c-1.44-2.205-2.468-4.468-2.288-7.116c0.67-0.114,1.343-0.202,2.025-0.171c1.081,0.049,1.728,0.486,2.152,1.496 c0.493,1.177,0.902,2.364,1.501,3.497c0.527,0.999,1.13,2.22,1.953,3.011c0.753,0.723,1.681,0.218,1.889-0.692 c0.227-0.993,0.085-2.215-0.032-3.217c-0.132-1.131-0.422-2.258-1.067-3.211c-0.074-0.109-0.174-0.213-0.238-0.326 c-0.113-0.199-0.149-0.229,0.017-0.354c0.157-0.118,0.502-0.086,0.681-0.096c0.716-0.038,1.434-0.052,2.151-0.055 c0.769-0.003,1.562-0.028,2.328,0.045c0.433,0.041,0.738,0.159,0.81,0.632c0.049,0.319-0.018,0.671-0.047,0.99 c-0.139,1.566-0.162,3.133-0.077,4.702c0.016,0.296,0.311,0.604,0.633,0.482c1.954-0.739,3.11-2.535,3.568-4.513 c0.111-0.477,0.097-1.029,0.274-1.486c0.237-0.609,1.182-0.767,1.741-0.935c0.611-0.183,1.233-0.331,1.861-0.443 c0.363-0.064,0.727-0.116,1.093-0.153c0.333-0.034,0.677-0.194,0.756,0.187c0.102,0.491-0.205,1.171-0.419,1.595 c-0.3,0.593-0.706,1.13-1.12,1.647c-0.735,0.917-1.498,1.811-1.95,2.91c-0.435,1.059-0.504,2.211,0.029,3.248 c0.447,0.869,1.232,1.496,1.922,2.162c0.417,0.403,0.805,0.825,1.079,1.341C34.793,30.977,35.358,32.211,34.745,32.521z"/></svg>